<svg width="15" height="37" viewBox="0 0 15 37" xmlns="http://www.w3.org/2000/svg">
<path d="M13.3445 30.8263L13.6006 29.8597H13.6006L13.3445 30.8263ZM14.5024 31.8646C14.9799 31.5872 15.1421 30.9751 14.8646 30.4976L10.343 22.7159C10.0656 22.2384 9.45352 22.0762 8.97599 22.3537C8.49847 22.6311 8.33629 23.2432 8.61376 23.7207L12.633 30.6378L5.71589 34.657C5.23836 34.9344 5.07618 35.5465 5.35365 36.024C5.63112 36.5015 6.24316 36.6637 6.72069 36.3862L14.5024 31.8646ZM13.0883 31.7929L13.7439 31.9666L14.2561 30.0334L13.6006 29.8597L13.0883 31.7929ZM13.7862 0.0231293C-2.96983 3.69092 -3.49483 27.3988 13.0883 31.7929L13.6006 29.8597C-0.951241 26.0038 -0.494694 5.19648 14.2138 1.97687L13.7862 0.0231293Z" />
</svg>
