<svg width="25" height="24" viewBox="0 0 25 24" fill="none" xmlns="http://www.w3.org/2000/svg">
    <path d="M18.5 10.0001L14.5 6.00006M3 21.5001L6.38437 21.124C6.79786 21.0781 7.0046 21.0551 7.19785 20.9925C7.36929 20.937 7.53245 20.8586 7.68289 20.7594C7.85245 20.6476 7.99955 20.5005 8.29373 20.2063L21.5 7.00006C22.6046 5.89549 22.6046 4.10463 21.5 3.00006C20.3955 1.89549 18.6046 1.89549 17.5 3.00006L4.29373 16.2063C3.99955 16.5005 3.85246 16.6476 3.74064 16.8172C3.64143 16.9676 3.56301 17.1308 3.50751 17.3022C3.44496 17.4955 3.42198 17.7022 3.37604 18.1157L3 21.5001Z"
          stroke="#F7F9FA" stroke-width="2" stroke-linecap="round" stroke-linejoin="round"/>
</svg>
