<svg width="120" height="120" viewBox="0 0 150 150" fill="none" xmlns="http://www.w3.org/2000/svg">
    <g id="size=small, Mode=Light">
        <g id="Union">
            <mask id="path-1-inside-1_16_12032" fill="white">
                <path fill-rule="evenodd" clip-rule="evenodd" d="M75 150C116.421 150 150 116.421 150 75C150 72.5749 149.885 70.1767 149.66 67.8105V67.6871H33.6735V85.3741H127.126C121.526 108.974 100.313 126.531 75 126.531C45.4133 126.531 21.4286 102.546 21.4286 72.9592C21.4286 43.3725 45.4133 19.3878 75 19.3878C89.1055 19.3878 101.938 24.8393 111.505 33.7504L131.303 25.4509C117.559 9.84567 97.4293 0 75 0C33.5786 0 0 33.5786 0 75C0 116.421 33.5786 150 75 150Z"/>
            </mask>
            <path fill-rule="evenodd" clip-rule="evenodd" d="M75 150C116.421 150 150 116.421 150 75C150 72.5749 149.885 70.1767 149.66 67.8105V67.6871H33.6735V85.3741H127.126C121.526 108.974 100.313 126.531 75 126.531C45.4133 126.531 21.4286 102.546 21.4286 72.9592C21.4286 43.3725 45.4133 19.3878 75 19.3878C89.1055 19.3878 101.938 24.8393 111.505 33.7504L131.303 25.4509C117.559 9.84567 97.4293 0 75 0C33.5786 0 0 33.5786 0 75C0 116.421 33.5786 150 75 150Z" fill="#CDCFD0"/>
            <path d="M149.66 67.8105H148.66V67.858L148.664 67.9052L149.66 67.8105ZM149.66 67.6871H150.66V66.6871H149.66V67.6871ZM33.6735 67.6871V66.6871H32.6735V67.6871H33.6735ZM33.6735 85.3741H32.6735V86.3741H33.6735V85.3741ZM127.126 85.3741L128.099 85.605L128.391 84.3741H127.126V85.3741ZM111.505 33.7504L110.823 34.4822L111.296 34.9224L111.891 34.6727L111.505 33.7504ZM131.303 25.4509L131.69 26.3731L132.974 25.8348L132.053 24.7899L131.303 25.4509ZM149 75C149 115.869 115.869 149 75 149V151C116.974 151 151 116.974 151 75H149ZM148.664 67.9052C148.886 70.2399 149 72.6066 149 75H151C151 72.5432 150.883 70.1134 150.655 67.7158L148.664 67.9052ZM148.66 67.6871V67.8105H150.66V67.6871H148.66ZM33.6735 68.6871H149.66V66.6871H33.6735V68.6871ZM34.6735 85.3741V67.6871H32.6735V85.3741H34.6735ZM127.126 84.3741H33.6735V86.3741H127.126V84.3741ZM75 127.531C100.787 127.531 122.394 109.646 128.099 85.605L126.153 85.1433C120.657 108.303 99.8392 125.531 75 125.531V127.531ZM20.4286 72.9592C20.4286 103.098 44.861 127.531 75 127.531V125.531C45.9656 125.531 22.4286 101.994 22.4286 72.9592H20.4286ZM75 18.3878C44.861 18.3878 20.4286 42.8202 20.4286 72.9592H22.4286C22.4286 43.9248 45.9656 20.3878 75 20.3878V18.3878ZM112.186 33.0187C102.442 23.942 89.3683 18.3878 75 18.3878V20.3878C88.8427 20.3878 101.434 25.7366 110.823 34.4822L112.186 33.0187ZM130.916 24.5286L111.118 32.8282L111.891 34.6727L131.69 26.3731L130.916 24.5286ZM75 1C97.1301 1 116.99 10.713 130.553 26.1118L132.053 24.7899C118.128 8.97833 97.7285 -1 75 -1V1ZM1 75C1 34.1309 34.1309 1 75 1V-1C33.0264 -1 -1 33.0264 -1 75H1ZM75 149C34.1309 149 1 115.869 1 75H-1C-1 116.974 33.0264 151 75 151V149Z" fill="#979C9E" mask="url(#path-1-inside-1_16_12032)"/>
        </g>
        <g id="Vector 4">
            <path d="M21.9869 37.25L51.5306 28.5713L81.1842 37.25L102.381 65.044L51.9699 134.694L0.680298 65.044L21.9869 37.25Z" fill="#1EA7FF"/>
            <path d="M51.5306 28.5713L31.1026 70.427M51.5306 28.5713L0.680298 65.044M51.5306 28.5713L21.9869 37.25L0.680298 65.044M51.5306 28.5713L72.7274 70.427M51.5306 28.5713L102.381 65.044M51.5306 28.5713L81.1842 37.25L102.381 65.044M31.1026 70.427L0.680298 65.044M31.1026 70.427H72.7274M31.1026 70.427L51.9699 134.694M0.680298 65.044L51.9699 134.694M72.7274 70.427L102.381 65.044M72.7274 70.427L51.9699 134.694M102.381 65.044L51.9699 134.694" stroke="#303437"/>
        </g>
    </g>
</svg>
